<?xml version="1.0" encoding="UTF-8" standalone="no"?>
<svg viewBox="0 0 20 20" version="1.1" xmlns="http://www.w3.org/2000/svg" xmlns:xlink="http://www.w3.org/1999/xlink">
  <title>icons/country</title>
  <desc>Created with Sketch.</desc>
  <g id="icons/country" stroke="none" stroke-width="1" fill-rule="evenodd">
    <path d="M11.105,17.409 C11.252,16.551 11.609,15.5 12.5,15.5 C12.5,15.5 14,15.5 14,14 L14,12.5 C14,12.5 12.5,12.5 12.5,11 L9.5,11 C8,11 8.5,10 8.5,10 C7,10 7,8.5 7,8.5 L7,7 L8.5,7 C8.5,7 10,7 10,5.5 C10,4 12,4 12,4 L12,2.779 C13.426,3.175 14.667,3.996 15.618,5.077 C15.255,5.227 14.999,5.583 14.999,6 L14.999,7 C14.999,7.553 15.447,8 15.999,8 L16.999,8 C17.068,8 17.128,7.974 17.193,7.961 C17.378,8.612 17.5,9.29 17.5,10 C17.5,13.759 14.717,16.872 11.105,17.409 Z M9.5,17 L9.5,17.474 C5.597,17.215 2.5,13.967 2.5,10 C2.5,8.319 3.062,6.771 4,5.519 L4,8.5 C4,8.5 4,10 5.5,10 C7,10 7,11.5 7,11.5 C8,12 8,14 8,14 C8,14 8,15.5 9.5,15.5 L9.5,17 Z M10,1 C5.029,1 1,5.03 1,10 C1,14.97 5.029,19 10,19 C14.97,19 19,14.97 19,10 C19,5.03 14.97,1 10,1 Z" id="Fill-3"></path>
  </g>
</svg>