<svg xmlns="http://www.w3.org/2000/svg" width="20" height="20" viewBox="0 0 20 20">
    <g fill="none" fill-rule="nonzero">
        <path stroke="#000000" stroke-width="2" d="M4.598 14h10.845a2.977 2.977 0 0 1-.887-1.907l-.64-4.175c-.201-1.885-1.31-3.295-2.866-3.642l-.783-.174v-.865C10.23 3.114 10.097 3 10 3c-.09 0-.188.096-.188.147v.926l-.749.195c-1.613.42-2.781 1.877-2.985 3.772l-.635 4.135c-.115.719-.409 1.354-.845 1.825z"/>
        <path fill="#000000" d="M12.1 16h-4v.5c0 .8.7 1.5 1.5 1.5h.9c.8 0 1.5-.7 1.5-1.5V16h.1z"/>
    </g>
</svg>
